<?xml version="1.0" standalone="no"?>
<!DOCTYPE svg PUBLIC "-//W3C//DTD SVG 20010904//EN"
 "http://www.w3.org/TR/2001/REC-SVG-20010904/DTD/svg10.dtd">
<svg version="1.0" xmlns="http://www.w3.org/2000/svg"
 width="100.000000pt" height="100.000000pt" viewBox="0 0 100.000000 100.000000"
 preserveAspectRatio="xMidYMid meet">
<metadata>
Created by potrace 1.11, written by Peter Selinger 2001-2013
</metadata>
<g transform="translate(0.000000,100.000000) scale(0.100000,-0.100000)"
fill="#000000" stroke="none">
<path d="M153 964 c-49 -21 -91 -62 -118 -114 -18 -34 -32 -124 -16 -99 6 9
24 22 40 28 24 10 34 10 59 -3 34 -17 45 -41 40 -86 -2 -24 7 -38 53 -82 l57
-53 -39 -45 c-22 -25 -39 -49 -39 -54 0 -5 17 -25 37 -43 l37 -34 75 75 76 76
-68 68 c-37 37 -67 70 -67 74 0 4 22 30 50 59 43 48 49 58 46 91 -3 32 1 42
26 63 45 38 85 29 112 -23 12 -23 12 -32 1 -58 -16 -39 -27 -46 -70 -46 -25 0
-42 -9 -74 -42 l-41 -42 70 -69 c39 -38 70 -72 70 -75 0 -3 -14 -20 -30 -39
-17 -18 -30 -36 -30 -40 0 -3 14 -19 29 -34 l29 -28 89 85 88 85 -45 45 -44
46 109 110 c97 98 109 114 107 141 -2 16 3 41 12 54 9 13 16 26 16 27 0 2
-135 4 -299 4 -285 0 -302 -1 -348 -22z"/>
<path d="M905 877 c-16 -35 -54 -55 -77 -41 -5 4 -55 -38 -109 -92 l-99 -98
42 -43 43 -43 -118 -117 -117 -118 -50 50 -50 49 -85 -84 -85 -85 37 -31 37
-31 54 54 54 55 25 -23 c15 -13 42 -38 61 -56 l35 -32 154 155 c137 137 154
157 150 182 -6 37 19 69 61 81 27 8 36 6 58 -12 29 -25 39 -74 21 -98 -19 -25
-57 -41 -81 -35 -19 5 -41 -11 -116 -84 l-94 -90 35 -35 c28 -28 39 -33 64
-29 38 7 80 -24 88 -62 7 -36 -38 -86 -78 -86 -40 0 -79 45 -71 82 4 20 -2 36
-21 59 -14 17 -31 31 -37 31 -7 0 -38 -27 -71 -60 l-59 -60 -58 57 -57 57 -23
-20 c-12 -10 -40 -36 -63 -57 l-40 -38 -22 25 -22 26 -60 -59 c-34 -32 -61
-60 -61 -63 0 -3 22 -15 50 -27 48 -21 61 -21 363 -18 l314 3 46 28 c40 23 97
86 97 108 0 4 5 19 11 35 8 18 12 127 13 317 1 276 1 292 -20 335 -11 25 -28
52 -37 59 -13 11 -18 8 -32 -21z"/>
<path d="M11 433 c-1 -234 -1 -239 24 -292 l25 -54 22 19 c12 11 42 38 67 61
l46 43 -23 15 c-30 22 -28 35 13 75 19 19 35 39 35 44 0 6 -22 33 -50 61 l-49
50 39 43 c22 24 40 46 40 50 0 5 -18 26 -40 47 -31 30 -47 39 -68 37 -17 -2
-39 5 -54 18 l-27 21 0 -238z"/>
</g>
</svg>
