<svg width="229" height="24" viewBox="0 0 229 24" fill="none" xmlns="http://www.w3.org/2000/svg">
<g clip-path="url(#clip0_47_1287)">
<path d="M8.46195 14.2049L8.40716 14.3869C8.15239 15.2536 7.29221 15.8324 6.2704 15.8324C4.73083 15.8324 3.61314 14.5418 3.61314 12.7621C3.57865 11.9465 3.84556 11.1465 4.36374 10.5123C4.58162 10.2364 4.86097 10.0144 5.17989 9.86352C5.49881 9.71267 5.84863 9.63714 6.20191 9.64287C6.67981 9.61813 7.15275 9.74922 7.54847 10.0161C7.9442 10.283 8.24098 10.6711 8.39346 11.121L8.45099 11.2949H11.8479L11.8041 11.0014C11.3548 8.15119 9.23721 6.42584 6.13068 6.42584C5.30812 6.40314 4.4899 6.55172 3.72881 6.862C2.96771 7.17229 2.28066 7.63738 1.71197 8.22727C0.561299 9.45946 -0.0538028 11.0916 -0.000185051 12.7702C-0.000185051 14.6179 0.575098 16.1503 1.71471 17.3268C2.85431 18.5033 4.32539 19.0793 6.13068 19.0793C9.14407 19.0793 11.2808 17.373 11.8424 14.5146L11.9027 14.213L8.46195 14.2049Z" fill="white"/>
<path d="M24.033 8.19747C23.4269 7.61384 22.7091 7.15643 21.922 6.85218C21.1349 6.54793 20.2944 6.403 19.4499 6.42593C18.6066 6.40241 17.7671 6.54709 16.9813 6.8514C16.1954 7.15571 15.4792 7.61345 14.875 8.19747C13.6724 9.36582 13.0615 10.8928 13.0615 12.7377C13.0615 14.5826 13.6724 16.1341 14.875 17.3024C15.4794 17.886 16.1957 18.3432 16.9816 18.647C17.7674 18.9509 18.6068 19.0951 19.4499 19.0712C20.2961 19.0968 21.1388 18.9533 21.928 18.6495C22.7172 18.3456 23.4368 17.8875 24.0439 17.3024C25.263 16.1422 25.8821 14.6071 25.8821 12.7377C25.8821 10.8684 25.2493 9.35767 24.033 8.19747ZM22.2332 12.7377C22.2332 14.531 21.0662 15.8325 19.4581 15.8325C19.0812 15.8433 18.7064 15.7723 18.3601 15.6244C18.0137 15.4766 17.7041 15.2555 17.4528 14.9766C16.909 14.3587 16.6256 13.5571 16.6611 12.7377C16.6264 11.925 16.9101 11.1305 17.4528 10.5206C17.6995 10.2369 18.0066 10.011 18.352 9.85925C18.6973 9.70749 19.0723 9.63362 19.4499 9.64296C21.1182 9.64296 22.2332 10.8874 22.2332 12.7377Z" fill="white"/>
<path d="M39.9659 6.42594C39.3023 6.41651 38.647 6.57224 38.0598 6.87887C37.4726 7.1855 36.9723 7.63325 36.6046 8.18118C35.9361 7.03185 34.7828 6.42594 33.2351 6.42594C31.9475 6.42594 30.9504 6.86883 30.2655 7.74373L30.1011 6.67863H27.0576V18.8186H30.5531V12.4171C30.5531 10.7869 31.227 9.82501 32.3557 9.82501C32.9502 9.82501 33.7419 10.0152 33.7419 11.659V18.8186H37.2566V12.284C37.2757 10.7434 37.9496 9.82501 39.0591 9.82501C39.6536 9.82501 40.4453 10.0152 40.4453 11.659V18.8186H43.9655V11.0178C43.9709 8.15129 42.4615 6.42594 39.9659 6.42594Z" fill="white"/>
<path d="M57.0871 8.25716C56.5816 7.66927 55.9507 7.20004 55.2401 6.88335C54.5295 6.56665 53.7568 6.41039 52.9779 6.42585C51.4767 6.42585 50.2878 6.90949 49.4167 7.86047L49.2578 6.67854H46.2061V23.7527H49.7262V17.9707C50.4933 18.7016 51.5863 19.0576 52.9862 19.0576C53.7597 19.0708 54.5265 18.9136 55.2314 18.5974C55.9363 18.2812 56.5617 17.8138 57.0625 17.229C58.1608 15.9851 58.7476 14.3771 58.7061 12.7241C58.7006 10.9444 58.1719 9.47713 57.0871 8.25716ZM55.0627 12.7376C55.0627 14.4929 53.9258 15.7645 52.3588 15.7645C52.0076 15.7647 51.66 15.6943 51.3369 15.5574C51.0139 15.4206 50.7223 15.2202 50.4796 14.9684C49.9338 14.3899 49.6387 13.6221 49.6577 12.83V12.6914C49.636 12.2939 49.6962 11.896 49.8347 11.5223C49.9731 11.1486 50.187 10.8068 50.4631 10.5178C50.7086 10.2635 51.0038 10.0617 51.3308 9.92483C51.6577 9.78792 52.0094 9.71879 52.3643 9.72167C53.9669 9.73526 55.0627 10.9688 55.0627 12.7376Z" fill="white"/>
<path d="M66.8121 6.56445C65.341 6.56445 64.185 7.07526 63.5248 7.99092L63.3303 6.67857H60.2676V18.8185H63.7878V12.6589C63.8289 11.7541 64.1083 11.1101 64.6342 10.6917C65.272 10.2417 66.044 10.0177 66.8258 10.0559H67.0833V6.56445H66.8121Z" fill="white"/>
<path d="M76.2165 14.6723L76.1535 14.8353C75.8412 15.6504 75.1481 16.0254 74.0332 16.0254C72.6635 16.0254 71.6827 15.2102 71.4937 13.9169H79.6326V12.7377C79.6326 8.78705 77.504 6.4259 73.94 6.4259C72.1293 6.4259 70.6911 7.01551 69.5569 8.22461C68.4338 9.38481 67.8667 10.9118 67.8667 12.7621C67.8667 14.6125 68.4146 16.1721 69.535 17.3431C70.6554 18.5142 72.1539 19.0712 73.951 19.0712C76.8329 19.0712 78.7724 17.661 79.5641 14.9956L79.66 14.6695L76.2165 14.6723ZM71.5321 11.3438C71.6141 10.7934 71.8983 10.2925 72.3302 9.9374C72.7621 9.58229 73.311 9.39806 73.8716 9.42013C75.1098 9.42013 75.9508 10.1673 76.0631 11.3438H71.5321Z" fill="white"/>
<path d="M108.345 6.42041C105.573 6.42041 103.592 8.15663 103.414 10.7433L103.398 11.015H106.838V10.7596C106.838 9.99066 107.441 9.47713 108.34 9.47713C109.285 9.47713 109.726 9.95534 109.726 10.9878V11.2133L106.912 11.7242C104.324 12.1399 103.063 13.3544 103.063 15.4629C103.063 17.6175 104.598 19.0657 106.882 19.0657C108.225 19.0657 109.293 18.6337 110.063 17.7805L110.197 18.813H113.246V10.9335C113.251 8.06153 111.463 6.42041 108.345 6.42041ZM109.731 13.7321V13.7647C109.745 14.2593 109.614 14.7473 109.353 15.1694C109.192 15.4598 108.953 15.7005 108.664 15.8654C108.374 16.0302 108.044 16.1128 107.71 16.1041C107.006 16.1041 106.6 15.778 106.6 15.2102C106.6 14.8678 106.715 14.3951 107.715 14.1505L109.731 13.7321Z" fill="white"/>
<path d="M118.684 1.55688H115.164V18.8131H118.684V1.55688Z" fill="white"/>
<path d="M127.294 6.67322V13.167C127.294 14.7321 126.639 15.6668 125.538 15.6668C124.932 15.6668 124.13 15.4739 124.13 13.811V6.67322H120.609V14.4767C120.609 17.3921 122.078 19.0658 124.636 19.0658C125.91 19.0658 126.899 18.623 127.584 17.7481L127.746 18.8131H130.792V6.67322H127.294Z" fill="white"/>
<path d="M144.298 6.6731H139.64C139.08 6.50742 138.499 6.42232 137.915 6.42041C136.615 6.37997 135.346 6.81846 134.353 7.65125C133.889 8.0348 133.519 8.51815 133.27 9.06469C133.022 9.61123 132.903 10.2066 132.921 10.8058C132.915 11.6355 133.167 12.4469 133.644 13.1289C133.286 13.4389 133.001 13.8228 132.808 14.2537C132.616 14.6845 132.52 15.1519 132.529 15.6232C132.52 16.1017 132.622 16.5759 132.828 17.0086C133.035 17.4413 133.339 17.8208 133.718 18.1175C133.4 18.3567 133.143 18.6668 132.969 19.0227C132.794 19.3787 132.706 19.7704 132.712 20.1661C132.712 22.6387 134.693 23.9999 138.29 23.9999C141.643 23.9999 143.728 22.3534 143.728 19.707C143.728 17.4165 142.235 16.1041 139.632 16.1041H136.871C136.449 16.1041 135.948 15.9791 135.948 15.3922C135.941 15.2036 135.984 15.0165 136.071 14.8488C136.668 15.0246 137.289 15.108 137.912 15.0961C139.345 15.0961 140.523 14.6967 141.413 13.9087C141.857 13.5229 142.21 13.0449 142.446 12.5086C142.683 11.9724 142.798 11.391 142.783 10.8058C142.783 10.4346 142.736 10.0648 142.643 9.70537H144.287L144.298 6.6731ZM136.15 19.9352C136.141 19.8008 136.158 19.6659 136.202 19.5382C136.245 19.4106 136.314 19.2927 136.403 19.1916C136.493 19.0905 136.602 19.008 136.724 18.9491C136.846 18.8902 136.979 18.8559 137.115 18.8484H138.854C140.117 18.8484 140.265 19.438 140.265 19.8808C140.265 21.0166 139.197 21.2557 138.301 21.2557C137.66 21.2666 136.15 21.1361 136.15 19.9352ZM137.884 9.17825C138.78 9.17825 139.361 9.81677 139.361 10.8085C139.361 11.754 138.767 12.3898 137.884 12.3898C137.002 12.3898 136.381 11.754 136.381 10.8085C136.381 9.86296 136.991 9.17825 137.89 9.17825H137.884Z" fill="white"/>
<path d="M151.951 6.67322V13.167C151.951 14.7321 151.294 15.6668 150.195 15.6668C149.59 15.6668 148.784 15.4739 148.784 13.811V6.67322H145.264V14.4767C145.264 17.3921 146.732 19.0658 149.291 19.0658C150.568 19.0658 151.557 18.623 152.241 17.7481L152.403 18.8131H155.447V6.67322H151.951Z" fill="white"/>
<path d="M165.164 14.6722L165.101 14.8352C164.788 15.6503 164.095 16.0253 162.98 16.0253C161.611 16.0253 160.63 15.2102 160.441 13.9168H168.58V12.7322C168.58 8.78156 166.451 6.42041 162.887 6.42041C161.076 6.42041 159.638 7.01002 158.504 8.21912C157.381 9.37931 156.811 10.9063 156.811 12.7539C156.811 14.6015 157.359 16.1666 158.482 17.3377C159.605 18.5087 161.098 19.0657 162.898 19.0657C165.78 19.0657 167.719 17.6556 168.511 14.9901L168.607 14.664L165.164 14.6722ZM160.479 11.3302C160.561 10.7798 160.845 10.2789 161.277 9.92375C161.709 9.56865 162.258 9.38442 162.819 9.40649C164.057 9.40649 164.898 10.1537 165.01 11.3302H160.479Z" fill="white"/>
<path d="M177.658 6.42041C174.886 6.42041 172.905 8.15663 172.727 10.7433L172.711 11.015H176.146V10.7596C176.146 9.99066 176.751 9.47713 177.647 9.47713C178.595 9.47713 179.033 9.95534 179.033 10.9878V11.2133L176.22 11.7242C173.631 12.1399 172.385 13.3544 172.385 15.4629C172.385 17.6175 173.919 19.0657 176.201 19.0657C177.546 19.0657 178.612 18.6337 179.381 17.7805L179.516 18.813H182.565V10.9335C182.565 8.06153 180.778 6.42041 177.658 6.42041ZM179.044 13.7321V13.7647C179.058 14.2593 178.927 14.7473 178.666 15.1694C178.505 15.4598 178.267 15.7005 177.977 15.8654C177.687 16.0302 177.357 16.1128 177.023 16.1041C176.319 16.1041 175.927 15.778 175.927 15.2102C175.927 14.8678 176.045 14.3951 177.042 14.1505L179.044 13.7321Z" fill="white"/>
<path d="M195.982 6.67317H191.325C190.765 6.50766 190.184 6.42257 189.599 6.42048C188.3 6.37951 187.031 6.81807 186.038 7.65132C185.574 8.03487 185.203 8.51821 184.955 9.06475C184.707 9.61129 184.587 10.2067 184.605 10.8059C184.6 11.6352 184.851 12.4461 185.326 13.129C184.968 13.4393 184.684 13.8233 184.491 14.2541C184.298 14.6849 184.203 15.1521 184.211 15.6232C184.202 16.1024 184.305 16.5772 184.511 17.0104C184.718 17.4436 185.023 17.8235 185.403 18.1202C185.084 18.3583 184.827 18.6678 184.652 19.0234C184.477 19.3791 184.39 19.7707 184.397 20.1662C184.397 22.6388 186.378 24 189.975 24C193.328 24 195.413 22.3535 195.413 19.707C195.413 17.4165 193.92 16.1042 191.303 16.1042H188.564C188.142 16.1042 187.638 15.9792 187.638 15.3923C187.633 15.2035 187.676 15.0164 187.764 14.8489C188.361 15.0249 188.982 15.1083 189.605 15.0961C191.035 15.0961 192.213 14.6967 193.106 13.9088C193.549 13.5226 193.902 13.0445 194.139 12.5083C194.375 11.9722 194.49 11.391 194.476 10.8059C194.477 10.4345 194.429 10.0645 194.333 9.70543H195.977L195.982 6.67317ZM187.838 19.9353C187.828 19.8009 187.846 19.6659 187.889 19.5383C187.933 19.4106 188.001 19.2928 188.091 19.1917C188.181 19.0905 188.29 19.0081 188.412 18.9492C188.534 18.8903 188.667 18.856 188.802 18.8484H190.545C191.807 18.8484 191.953 19.438 191.953 19.8809C191.953 21.0167 190.884 21.2558 189.988 21.2558C189.342 21.2666 187.838 21.1362 187.838 19.9353ZM191.051 10.8059C191.051 11.7514 190.457 12.3872 189.572 12.3872C188.687 12.3872 188.071 11.7514 188.071 10.8059C188.071 9.86031 188.674 9.1756 189.572 9.1756C190.471 9.1756 191.051 9.81683 191.051 10.8059Z" fill="white"/>
<path d="M207.285 8.18925C206.034 7.0505 204.397 6.4187 202.699 6.4187C201.001 6.4187 199.365 7.0505 198.113 8.18925C196.911 9.3576 196.303 10.8846 196.303 12.7295C196.303 14.5744 196.911 16.1259 198.113 17.2942C199.365 18.4322 201 19.0635 202.698 19.0635C204.395 19.0635 206.031 18.4322 207.282 17.2942C208.501 16.134 209.121 14.5961 209.121 12.7295C209.121 10.8629 208.501 9.35216 207.285 8.18925ZM205.485 12.7322C205.485 14.5255 204.318 15.827 202.71 15.827C202.333 15.8374 201.959 15.7662 201.612 15.6184C201.266 15.4706 200.956 15.2497 200.705 14.9711C200.162 14.3525 199.879 13.5514 199.913 12.7322C199.878 11.9207 200.16 11.127 200.702 10.5178C200.95 10.2306 201.26 10.0024 201.609 9.85004C201.958 9.69766 202.337 9.62501 202.718 9.63746C204.362 9.63746 205.485 10.8819 205.485 12.7322Z" fill="white"/>
<path d="M217.237 6.55908C215.744 6.55908 214.608 7.05631 213.95 7.98012L213.756 6.6732H210.688V18.8131H214.208V12.6535C214.249 11.7487 214.528 11.1048 215.057 10.6863C215.692 10.2386 216.46 10.0157 217.237 10.0533H217.495V6.55908H217.237Z" fill="white"/>
<path d="M223.539 6.42041C220.766 6.42041 218.786 8.15663 218.608 10.7433L218.591 11.015H222.035V10.7596C222.035 9.99066 222.637 9.47713 223.536 9.47713C224.481 9.47713 224.922 9.95534 224.922 10.9878V11.2133L222.109 11.7242C219.52 12.1399 218.273 13.3544 218.273 15.4629C218.273 17.6175 219.808 19.0657 222.092 19.0657C223.435 19.0657 224.503 18.6337 225.273 17.7805L225.407 18.813H228.456V10.9335C228.431 8.06153 226.642 6.42041 223.539 6.42041ZM224.908 13.7321V13.7647C224.922 14.2593 224.791 14.7473 224.53 15.1694C224.369 15.4598 224.131 15.7005 223.841 15.8654C223.551 16.0302 223.221 16.1128 222.887 16.1041C222.183 16.1041 221.777 15.778 221.777 15.2102C221.777 14.8678 221.892 14.3951 222.892 14.1505L224.908 13.7321Z" fill="white"/>
<path d="M89.9715 14.0582L90.6262 14.5364L91.2919 14.0718C97.6419 9.62934 97.1899 5.58632 96.7023 4.05661C95.9298 1.63025 93.4944 0 90.6427 0C87.8786 0 85.5884 1.53244 84.8049 3.89358C83.7393 7.10246 85.6706 10.9009 89.9715 14.0582ZM86.9444 4.59187C87.4183 3.16269 88.862 2.23888 90.6427 2.23616C92.5055 2.23616 94.0779 3.24148 94.5546 4.73044C95.2148 6.80086 93.7656 9.39296 90.6591 11.7595C87.6293 9.33862 86.2486 6.69489 86.9444 4.59187Z" fill="white"/>
<path d="M90.6427 7.09434C91.6549 7.09434 92.4754 6.30363 92.4754 5.32824C92.4754 4.35285 91.6549 3.56213 90.6427 3.56213C89.6306 3.56213 88.8101 4.35285 88.8101 5.32824C88.8101 6.30363 89.6306 7.09434 90.6427 7.09434Z" fill="white"/>
<path d="M98.1213 18.4409L98.2966 18.1692C98.8433 17.5199 99.319 16.815 99.7156 16.0661C99.0363 15.4793 98.6801 15.1777 97.9103 14.5337C97.4871 15.3362 96.9744 16.089 96.3817 16.778C96.3774 16.7832 96.3719 16.7873 96.3658 16.7901C96.3596 16.793 96.3529 16.7944 96.3461 16.7944C96.3393 16.7944 96.3326 16.793 96.3265 16.7901C96.3203 16.7873 96.3149 16.7832 96.3105 16.778L93.2369 13.9984C92.7657 14.3843 92.2561 14.7755 91.6946 15.1668L91.2426 15.4874L94.7244 18.6365C94.7301 18.6411 94.7347 18.6469 94.7379 18.6535C94.741 18.6601 94.7427 18.6673 94.7427 18.6745C94.7427 18.6818 94.741 18.689 94.7379 18.6956C94.7347 18.7022 94.7301 18.708 94.7244 18.7126C93.5385 19.7754 91.9998 20.3682 90.4015 20.3782C89.0893 20.3782 87.9826 20.0304 87.1361 19.3375C86.7387 19.0408 86.4161 18.6567 86.1936 18.2154C85.9711 17.7742 85.8549 17.2877 85.8541 16.7943C85.8541 15.4847 86.4841 14.4413 87.7278 13.6615C87.1431 13.1289 86.594 12.5589 86.0842 11.9552C84.3227 13.042 83.2406 14.7538 83.2406 16.8242C83.2139 17.6376 83.3759 18.4462 83.7141 19.1877C84.0522 19.9292 84.5576 20.5838 85.1911 21.1009C86.5033 22.1877 88.2511 22.7475 90.3796 22.7475C91.5214 22.7613 92.6546 22.5499 93.7132 22.1254C94.7719 21.7009 95.7348 21.0719 96.5461 20.2749C96.5476 20.2732 96.5495 20.2718 96.5517 20.2708C96.5538 20.2699 96.5561 20.2694 96.5584 20.2694C96.5608 20.2694 96.5631 20.2699 96.5652 20.2708C96.5673 20.2718 96.5692 20.2732 96.5708 20.2749L98.8472 22.3317C98.8578 22.336 98.8696 22.336 98.8801 22.3317H102.293C102.303 22.3324 102.313 22.3299 102.321 22.3247C102.33 22.3195 102.336 22.3118 102.34 22.3028C102.343 22.2938 102.344 22.2838 102.342 22.2744C102.339 22.2649 102.334 22.2565 102.326 22.2502L98.1213 18.4409Z" fill="white"/>
</g>
<defs>
<clipPath id="clip0_47_1287">
<rect width="229" height="24" fill="white"/>
</clipPath>
</defs>
</svg>
